<svg width="16" height="17" viewBox="0 0 16 17" fill="none" xmlns="http://www.w3.org/2000/svg">
<path fill-rule="evenodd" clip-rule="evenodd" d="M2.21281 0.244141H2.15134C1.86982 0.244141 1.62764 0.244141 1.41374 0.295141C1.0826 0.375204 0.779831 0.546467 0.538979 0.789952C0.298128 1.03344 0.128598 1.33964 0.0491735 1.67463C-4.57964e-08 1.89107 0 2.13487 0 2.42097V5.53073C0 5.81558 9.15928e-09 6.06063 0.0504029 6.27707C0.129529 6.61213 0.298786 6.91849 0.53942 7.16219C0.780055 7.40589 1.08267 7.57743 1.41374 7.6578C1.62764 7.70756 1.86859 7.70756 2.15134 7.70756H5.22469C5.5062 7.70756 5.74838 7.70756 5.96229 7.65656C6.29343 7.57649 6.5962 7.40523 6.83705 7.16174C7.0779 6.91826 7.24743 6.61206 7.32685 6.27707C7.37603 6.06063 7.37603 5.81682 7.37603 5.53073V2.42097C7.37603 2.13612 7.37603 1.89107 7.32562 1.67463C7.2465 1.33957 7.07724 1.03321 6.83661 0.789505C6.59597 0.545801 6.29336 0.374262 5.96229 0.293897C5.74838 0.244141 5.50743 0.244141 5.22469 0.244141H2.21281ZM1.70017 1.50546C1.75304 1.49302 1.8354 1.48804 2.21281 1.48804H5.16322C5.54185 1.48804 5.62299 1.49177 5.67585 1.50546C5.78628 1.53218 5.88724 1.58933 5.96753 1.67057C6.04782 1.75181 6.1043 1.85396 6.13071 1.9657C6.143 2.01795 6.14669 2.10004 6.14669 2.48317V5.46853C6.14669 5.85165 6.143 5.93375 6.12948 5.98724C6.10307 6.09898 6.04659 6.20113 5.9663 6.28237C5.88601 6.36361 5.78505 6.42076 5.67462 6.44748C5.62422 6.45868 5.54308 6.46365 5.16322 6.46365H2.21281C1.83417 6.46365 1.75304 6.45992 1.70017 6.44624C1.58974 6.41952 1.48878 6.36237 1.4085 6.28113C1.32821 6.19989 1.27173 6.09773 1.24532 5.98599C1.23426 5.93499 1.22934 5.8529 1.22934 5.46853V2.48317C1.22934 2.10004 1.23303 2.01795 1.24655 1.96446C1.27296 1.85272 1.32944 1.75056 1.40973 1.66932C1.49001 1.58808 1.59097 1.53093 1.7014 1.50421L1.70017 1.50546ZM10.8182 0.244141H10.7567C10.4752 0.244141 10.233 0.244141 10.0191 0.295141C9.68796 0.375204 9.3852 0.546467 9.14434 0.789952C8.90349 1.03344 8.73396 1.33964 8.65454 1.67463C8.60536 1.89107 8.60536 2.13487 8.60536 2.42097V5.53073C8.60536 5.81558 8.60536 6.06063 8.65577 6.27707C8.73489 6.61213 8.90415 6.91849 9.14478 7.16219C9.38542 7.40589 9.68804 7.57743 10.0191 7.6578C10.233 7.70756 10.474 7.70756 10.7567 7.70756H13.8301C14.1116 7.70756 14.3537 7.70756 14.5677 7.65656C14.8988 7.57649 15.2016 7.40523 15.4424 7.16174C15.6833 6.91826 15.8528 6.61206 15.9322 6.27707C15.9814 6.06063 15.9814 5.81682 15.9814 5.53073V2.42097C15.9814 2.13612 15.9814 1.89107 15.931 1.67463C15.8519 1.33957 15.6826 1.03321 15.442 0.789505C15.2013 0.545801 14.8987 0.374262 14.5677 0.293897C14.3537 0.244141 14.1128 0.244141 13.8301 0.244141H10.8182ZM10.3055 1.50546C10.3584 1.49302 10.4408 1.48804 10.8182 1.48804H13.7686C14.1472 1.48804 14.2284 1.49177 14.2812 1.50546C14.3916 1.53218 14.4926 1.58933 14.5729 1.67057C14.6532 1.75181 14.7097 1.85396 14.7361 1.9657C14.7484 2.01795 14.7521 2.10004 14.7521 2.48317V5.46853C14.7521 5.85165 14.7471 5.93375 14.7348 5.98724C14.7084 6.09898 14.652 6.20113 14.5717 6.28237C14.4914 6.36361 14.3904 6.42076 14.28 6.44748C14.2284 6.45992 14.1472 6.46365 13.7686 6.46365H10.8182C10.4395 6.46365 10.3584 6.45992 10.3055 6.44624C10.1951 6.41952 10.0941 6.36237 10.0139 6.28113C9.93357 6.19989 9.87709 6.09773 9.85068 5.98599C9.83962 5.93499 9.8347 5.8529 9.8347 5.46853V2.48317C9.8347 2.10004 9.83839 2.01795 9.85191 1.96446C9.87832 1.85272 9.9348 1.75056 10.0151 1.66932C10.0954 1.58808 10.1963 1.53093 10.3068 1.50421L10.3055 1.50546ZM2.15134 8.95146H5.22469C5.5062 8.95146 5.74838 8.95146 5.96229 9.00246C6.29343 9.08252 6.5962 9.25378 6.83705 9.49727C7.0779 9.74075 7.24743 10.047 7.32685 10.3819C7.37603 10.5984 7.37603 10.8422 7.37603 11.1283V14.238C7.37603 14.5229 7.37603 14.7679 7.32562 14.9844C7.2465 15.3194 7.07724 15.6258 6.83661 15.8695C6.59597 16.1132 6.29336 16.2847 5.96229 16.3651C5.74838 16.4149 5.50743 16.4149 5.22469 16.4149H2.15134C1.86982 16.4149 1.62764 16.4149 1.41374 16.3639C1.0826 16.2838 0.779831 16.1125 0.538979 15.8691C0.298128 15.6256 0.128598 15.3194 0.0491735 14.9844C-4.57964e-08 14.7679 0 14.5241 0 14.238V11.1283C0 10.8434 9.15928e-09 10.5984 0.0504029 10.3819C0.129529 10.0469 0.298786 9.74053 0.53942 9.49682C0.780055 9.25312 1.08267 9.08158 1.41374 9.00121C1.62764 8.95146 1.86859 8.95146 2.15134 8.95146ZM2.21281 10.1954C1.83417 10.1954 1.75304 10.1991 1.70017 10.2128C1.58974 10.2395 1.48878 10.2966 1.4085 10.3779C1.32821 10.4591 1.27173 10.5613 1.24532 10.673C1.23426 10.724 1.22934 10.8061 1.22934 11.1905V14.1758C1.22934 14.559 1.23303 14.6411 1.24655 14.6946C1.27296 14.8063 1.32944 14.9084 1.40973 14.9897C1.49001 15.0709 1.59097 15.1281 1.7014 15.1548C1.75304 15.1672 1.83417 15.171 2.21281 15.171H5.16322C5.54185 15.171 5.62299 15.166 5.67585 15.1536C5.78628 15.1268 5.88724 15.0697 5.96753 14.9884C6.04782 14.9072 6.1043 14.8051 6.13071 14.6933C6.143 14.6411 6.14669 14.559 6.14669 14.1758V11.1905C6.14669 10.8074 6.143 10.7253 6.12948 10.6718C6.10307 10.56 6.04659 10.4579 5.9663 10.3766C5.88601 10.2954 5.78505 10.2383 5.67462 10.2115C5.62422 10.2003 5.54308 10.1954 5.16322 10.1954H2.21281ZM10.8182 8.95146H10.7567C10.4752 8.95146 10.233 8.95146 10.0191 9.00246C9.68796 9.08252 9.3852 9.25378 9.14434 9.49727C8.90349 9.74075 8.73396 10.047 8.65454 10.3819C8.60536 10.5984 8.60536 10.8422 8.60536 11.1283V14.238C8.60536 14.5229 8.60536 14.7679 8.65577 14.9844C8.73489 15.3194 8.90415 15.6258 9.14478 15.8695C9.38542 16.1132 9.68804 16.2847 10.0191 16.3651C10.233 16.4161 10.4752 16.4161 10.7567 16.4161H13.8301C14.1116 16.4161 14.3537 16.4161 14.5677 16.3651C14.8986 16.2848 15.2011 16.1135 15.4417 15.87C15.6823 15.6266 15.8517 15.3205 15.931 14.9856C15.9814 14.7692 15.9814 14.5241 15.9814 14.2393V11.1283C15.9814 10.8434 15.9814 10.5984 15.931 10.3819C15.8519 10.0469 15.6826 9.74053 15.442 9.49682C15.2013 9.25312 14.8987 9.08158 14.5677 9.00121C14.3537 8.95146 14.1128 8.95146 13.8301 8.95146H10.8182ZM10.3055 10.2128C10.3584 10.2003 10.4408 10.1954 10.8182 10.1954H13.7686C14.1472 10.1954 14.2284 10.1991 14.2812 10.2128C14.3916 10.2395 14.4926 10.2966 14.5729 10.3779C14.6532 10.4591 14.7097 10.5613 14.7361 10.673C14.7484 10.7253 14.7521 10.8074 14.7521 11.1905V14.1758C14.7521 14.559 14.7471 14.6411 14.7348 14.6946C14.7084 14.8063 14.652 14.9084 14.5717 14.9897C14.4914 15.0709 14.3904 15.1281 14.28 15.1548C14.2284 15.1672 14.1472 15.171 13.7686 15.171H10.8182C10.4395 15.171 10.3584 15.166 10.3055 15.1536C10.1951 15.1268 10.0941 15.0697 10.0139 14.9884C9.93357 14.9072 9.87709 14.8051 9.85068 14.6933C9.83962 14.6423 9.8347 14.5602 9.8347 14.1758V11.1905C9.8347 10.8074 9.83839 10.7253 9.85191 10.6718C9.87832 10.56 9.9348 10.4579 10.0151 10.3766C10.0954 10.2954 10.1963 10.2383 10.3068 10.2115L10.3055 10.2128Z" fill="#E78A3C"/>
</svg>
