<svg width="13" height="17" viewBox="0 0 13 17" fill="none" xmlns="http://www.w3.org/2000/svg">
<path d="M1.15172 5.05625C2.38297 -0.356249 10.4017 -0.349998 11.6267 5.0625C12.3455 8.2375 10.3705 10.925 8.63922 12.5875C8.03427 13.171 7.34047 15.5 6.5 15.5C5.65953 15.5 4.73793 13.171 4.13297 12.5875C2.40797 10.925 0.432972 8.23125 1.15172 5.05625Z" fill="black" fill-opacity="0.7"/>
<path d="M0.694649 4.95227L0.694541 4.95276C-0.0821304 8.38362 2.05899 11.2396 3.80756 12.9249C3.90948 13.0232 4.05183 13.2272 4.24048 13.5342C4.31008 13.6474 4.38909 13.78 4.47204 13.9191C4.589 14.1153 4.7138 14.3247 4.8311 14.5117C5.03972 14.8442 5.27243 15.1859 5.51928 15.4482C5.74772 15.691 6.08214 15.9688 6.5 15.9688C6.92877 15.9688 7.25033 15.6792 7.46142 15.43C7.68755 15.163 7.89105 14.8171 8.0703 14.4854C8.16056 14.3184 8.24857 14.1476 8.33241 13.9848L8.33484 13.9801C8.42029 13.8142 8.50111 13.6574 8.57981 13.5125C8.74577 13.2072 8.87212 13.0142 8.96443 12.9251C10.7194 11.2397 12.8606 8.39001 12.0839 4.95901C11.4142 2.00018 8.87972 0.532933 6.39188 0.531251C3.90399 0.52957 1.36773 1.99346 0.694649 4.95227Z" stroke="black" stroke-opacity="0.7" stroke-width="0.9375"/>
<path d="M6.38945 8.14365C6.64553 8.14365 6.8991 8.09321 7.13569 7.99522C7.37227 7.89722 7.58724 7.75358 7.76831 7.57251C7.94939 7.39144 8.09302 7.17647 8.19102 6.93988C8.28902 6.7033 8.33945 6.44973 8.33945 6.19365C8.33945 5.93757 8.28902 5.684 8.19102 5.44742C8.09302 5.21083 7.94939 4.99587 7.76831 4.81479C7.58724 4.63372 7.37227 4.49008 7.13569 4.39209C6.8991 4.29409 6.64553 4.24365 6.38945 4.24365C5.87228 4.24365 5.37629 4.4491 5.01059 4.81479C4.6449 5.18049 4.43945 5.67648 4.43945 6.19365C4.43945 6.71082 4.6449 7.20681 5.01059 7.57251C5.37629 7.93821 5.87228 8.14365 6.38945 8.14365Z" fill="white" stroke="white" stroke-width="0.9375"/>
</svg>
