<svg width="17" height="16" viewBox="0 0 17 16" fill="none" xmlns="http://www.w3.org/2000/svg">
<path d="M8.66767 15.3256C9.52641 15.3256 10.2225 14.6294 10.2225 13.7707C10.2225 12.912 9.52641 12.2158 8.66767 12.2158C7.80894 12.2158 7.11279 12.912 7.11279 13.7707C7.11279 14.6294 7.80894 15.3256 8.66767 15.3256Z" fill="#E78A3C" stroke="#E78A3C" stroke-linecap="round"/>
<path d="M8.66767 4.44179C9.52641 4.44179 10.2225 3.74564 10.2225 2.88691C10.2225 2.02817 9.52641 1.33203 8.66767 1.33203C7.80894 1.33203 7.11279 2.02817 7.11279 2.88691C7.11279 3.74564 7.80894 4.44179 8.66767 4.44179Z" fill="#E78A3C" stroke="#E78A3C" stroke-linecap="round"/>
<path d="M14.3293 9.10976C15.188 9.10976 15.8842 8.41361 15.8842 7.55488C15.8842 6.69614 15.188 6 14.3293 6C13.4706 6 12.7744 6.69614 12.7744 7.55488C12.7744 8.41361 13.4706 9.10976 14.3293 9.10976Z" stroke="#E78A3C" stroke-linecap="round"/>
<path d="M2.55488 9.10976C3.41361 9.10976 4.10976 8.41361 4.10976 7.55488C4.10976 6.69614 3.41361 6 2.55488 6C1.69614 6 1 6.69614 1 7.55488C1 8.41361 1.69614 9.10976 2.55488 9.10976Z" stroke="#E78A3C" stroke-linecap="round"/>
</svg>
